<svg xmlns="http://www.w3.org/2000/svg" viewBox="0 0 256 256" width="256" height="256">
  <defs>
    <radialGradient id="bg" cx="40%" cy="35%" r="70%">
      <stop offset="0%"   stop-color="#7c3aed"/>
      <stop offset="55%"  stop-color="#4c1d95"/>
      <stop offset="100%" stop-color="#1e1b4b"/>
    </radialGradient>
    <radialGradient id="glow" cx="50%" cy="50%" r="50%">
      <stop offset="0%"   stop-color="#a855f7" stop-opacity="0.6"/>
      <stop offset="100%" stop-color="#a855f7" stop-opacity="0"/>
    </radialGradient>
  </defs>
  <!-- Background circle -->
  <circle cx="128" cy="128" r="128" fill="url(#bg)"/>
  <!-- Glow -->
  <ellipse cx="105" cy="95" rx="90" ry="80" fill="url(#glow)"/>
  <!-- Globe emoji rendered as SVG shapes -->
  <!-- Outer circle -->
  <circle cx="128" cy="128" r="80" fill="none" stroke="#60a5fa" stroke-width="5" opacity="0.9"/>
  <!-- Land masses (simplified) -->
  <path d="M90 85 Q105 75 125 80 Q140 75 155 85 Q165 100 160 118 Q170 130 162 145 Q150 165 135 170 Q118 175 103 165 Q88 155 83 138 Q75 120 83 103 Z"
        fill="#4ade80" opacity="0.85"/>
  <path d="M140 95 Q150 88 158 95 Q168 105 163 115 Q155 125 145 120 Q135 110 140 95 Z"
        fill="#4ade80" opacity="0.7"/>
  <!-- Latitude/longitude lines -->
  <ellipse cx="128" cy="128" rx="80" ry="30" fill="none" stroke="#60a5fa" stroke-width="2" opacity="0.4"/>
  <line x1="128" y1="48" x2="128" y2="208" stroke="#60a5fa" stroke-width="2" opacity="0.4"/>
  <!-- Ocean -->
  <circle cx="128" cy="128" r="80" fill="none" stroke="rgba(96,165,250,0.5)" stroke-width="3"/>
  <!-- Shine -->
  <circle cx="105" cy="95" r="22" fill="rgba(255,255,255,0.12)" />
</svg>
